<svg width="675" height="24" viewBox="0 0 675 24" fill="none" xmlns="http://www.w3.org/2000/svg">
<line x1="369" y1="11.5" x2="675" y2="11.5" stroke="#E5E5E5"/>
<line x1="-4.37114e-08" y1="11.5" x2="306" y2="11.5" stroke="#E5E5E5"/>
<path d="M340.034 11.7273C340.034 13.2614 339.757 14.5871 339.203 15.7045C338.649 16.822 337.889 17.6837 336.923 18.2898C335.957 18.8958 334.854 19.1989 333.614 19.1989C332.373 19.1989 331.27 18.8958 330.304 18.2898C329.338 17.6837 328.578 16.822 328.024 15.7045C327.47 14.5871 327.193 13.2614 327.193 11.7273C327.193 10.1932 327.47 8.86742 328.024 7.75C328.578 6.63258 329.338 5.77083 330.304 5.16477C331.27 4.55871 332.373 4.25568 333.614 4.25568C334.854 4.25568 335.957 4.55871 336.923 5.16477C337.889 5.77083 338.649 6.63258 339.203 7.75C339.757 8.86742 340.034 10.1932 340.034 11.7273ZM338.33 11.7273C338.33 10.4678 338.119 9.40483 337.697 8.53835C337.281 7.67188 336.715 7.0161 336 6.57102C335.29 6.12595 334.494 5.90341 333.614 5.90341C332.733 5.90341 331.935 6.12595 331.22 6.57102C330.51 7.0161 329.944 7.67188 329.523 8.53835C329.106 9.40483 328.898 10.4678 328.898 11.7273C328.898 12.9867 329.106 14.0497 329.523 14.9162C329.944 15.7827 330.51 16.4384 331.22 16.8835C331.935 17.3286 332.733 17.5511 333.614 17.5511C334.494 17.5511 335.29 17.3286 336 16.8835C336.715 16.4384 337.281 15.7827 337.697 14.9162C338.119 14.0497 338.33 12.9867 338.33 11.7273ZM342.768 19V8.09091H344.388V9.73864H344.501C344.7 9.19886 345.06 8.76089 345.581 8.42472C346.102 8.08854 346.689 7.92045 347.342 7.92045C347.465 7.92045 347.619 7.92282 347.804 7.92756C347.989 7.93229 348.128 7.93939 348.223 7.94886V9.65341C348.166 9.6392 348.036 9.6179 347.832 9.58949C347.634 9.55634 347.423 9.53977 347.2 9.53977C346.67 9.53977 346.196 9.65104 345.78 9.87358C345.368 10.0914 345.041 10.3944 344.8 10.7827C344.563 11.1662 344.445 11.6042 344.445 12.0966V19H342.768Z" fill="black"/>
</svg>
