<svg width="30" height="30" viewBox="0 0 30 30" fill="none" xmlns="http://www.w3.org/2000/svg">
<path d="M26.25 27.5C26.25 21.9775 21.7175 17.5 16.125 17.5H13.875C8.2825 17.5 3.75 21.9775 3.75 27.5M15 13.75C13.6739 13.75 12.4021 13.2232 11.4645 12.2855C10.5268 11.3479 10 10.0761 10 8.75V7.5C10 6.17392 10.5268 4.90215 11.4645 3.96447C12.4021 3.02678 13.6739 2.5 15 2.5C16.3261 2.5 17.5979 3.02678 18.5355 3.96447C19.4732 4.90215 20 6.17392 20 7.5V8.75C20 10.0761 19.4732 11.3479 18.5355 12.2855C17.5979 13.2232 16.3261 13.75 15 13.75Z" stroke="black" stroke-width="1.5" stroke-linecap="round" stroke-linejoin="round"/>
</svg>
