<svg width="700" height="700" viewBox="0 0 700 700" fill="none" xmlns="http://www.w3.org/2000/svg">
<path d="M207.067 519.61L253.155 539.7L299.236 559.762L325.5 485.135L351.736 410.529H433.097L433.02 373.142L432.95 335.748L365.925 335.825L298.893 335.895C290.175 335.905 281.68 338.647 274.602 343.736C267.524 348.826 262.219 356.005 259.434 364.266C250.703 390.152 241.976 416.052 233.254 441.966L207.067 519.61Z" fill="#A0A0A0" stroke="black" stroke-width="3" stroke-miterlimit="10" stroke-linecap="round"/>
<path d="M228.669 349.132L192.633 494.508L156.604 639.884" stroke="black" stroke-width="3" stroke-miterlimit="10" stroke-linecap="round"/>
<path d="M327.6 524.902L318.129 459.858C314.984 438.181 311.841 416.495 308.7 394.8C306.691 381.087 308 368.452 311.738 358.4C315.476 348.348 321.741 340.9 329.7 337.477C331.864 336.562 334.14 335.941 336.469 335.629C339.935 335.183 343.45 335.283 346.885 335.923H531.069C531.342 338.058 531.65 340.76 531.902 343.931C532.154 347.102 532.343 350.742 532.392 354.753C532.511 365.358 532.651 376.789 530.824 387.436C528.997 398.083 525.224 407.953 517.524 415.436C515.495 417.397 513.261 419.133 510.86 420.616C507.126 422.899 503.096 424.658 498.883 425.845C496.71 426.472 494.498 426.954 492.261 427.287C490.023 427.622 487.768 427.828 485.506 427.903L452.76 429.016L420 430.129L423.906 474.488L427.812 518.84L377.713 521.871L327.6 524.902Z" fill="#A0A0A0" stroke="black" stroke-width="3" stroke-miterlimit="10" stroke-linecap="round"/>
<path d="M543.9 349.132H171.15C170.829 349.137 170.511 349.077 170.213 348.958C169.916 348.838 169.645 348.66 169.417 348.435C169.189 348.209 169.008 347.941 168.885 347.644C168.762 347.348 168.699 347.031 168.7 346.71V338.352C168.7 337.709 168.955 337.092 169.409 336.637C169.863 336.182 170.479 335.925 171.122 335.923H543.9C544.543 335.925 545.159 336.182 545.613 336.637C546.067 337.092 546.322 337.709 546.322 338.352V346.71C546.323 347.028 546.261 347.344 546.139 347.638C546.018 347.932 545.84 348.2 545.615 348.425C545.39 348.65 545.122 348.828 544.828 348.95C544.534 349.071 544.218 349.133 543.9 349.132Z" fill="#D1B7E5" stroke="black" stroke-width="3" stroke-miterlimit="10" stroke-linecap="round"/>
<path d="M450.457 114.982C464.891 113.904 479.815 113.855 494.34 115.934C508.865 118.013 522.97 122.234 535.759 129.612C547.575 136.458 556.906 145.957 564.606 156.786C572.306 167.615 578.375 179.76 583.646 191.912C590.457 207.578 599.886 225.449 606.396 243.838C612.906 262.227 616.483 281.141 611.59 298.886C607.488 313.754 597.359 323.015 584.857 328.559C572.355 334.103 557.473 335.923 543.9 335.923H268.989C267.985 326.93 265.652 318.135 262.066 309.827C256.13 296.121 245.266 281.127 225.47 275.842L238.126 271.642L266 262.5L296.373 252.469L306.495 249.123C306.495 249.123 307.195 242.396 308.273 233.674C309.351 224.952 310.891 214.235 312.592 206.269C314.63 196.324 317.633 186.602 321.559 177.24C326.277 166.243 333.074 154.63 343.042 144.515C351.218 136.22 361.529 131.383 372.519 128.114C383.509 124.845 395.171 123.137 406.063 121.114C413.126 119.805 420.434 118.559 427.868 117.502C435.302 116.445 442.848 115.549 450.457 114.982Z" fill="#3E5844" stroke="black" stroke-width="3" stroke-miterlimit="10" stroke-linecap="round"/>
<path d="M407.232 164.976L388.976 250.439L370.727 335.902L401.835 335.825L432.95 335.748L420.392 250.348L407.827 164.948C407.82 164.877 407.787 164.811 407.734 164.763C407.681 164.715 407.612 164.689 407.54 164.689C407.501 164.687 407.462 164.693 407.425 164.707C407.388 164.72 407.354 164.741 407.326 164.768C407.297 164.794 407.274 164.827 407.258 164.862C407.242 164.898 407.233 164.937 407.232 164.976Z" fill="#FFF8F8" stroke="black" stroke-width="3" stroke-miterlimit="10" stroke-linecap="round"/>
<path d="M225.47 275.842C210.49 278.173 197.162 282.905 186.459 289.142C175.756 295.379 167.706 303.142 163.275 311.542C161.02 316.073 159.294 320.848 158.13 325.773C157.038 330.113 156.534 333.424 156.471 333.886C155.786 338.03 155.428 342.222 155.4 346.423C155.47 351.078 156.359 355.383 159.187 356.825C159.783 357.121 160.433 357.293 161.098 357.329C161.668 357.357 162.239 357.317 162.799 357.21C162.851 359.113 163.598 360.931 164.899 362.32C166.105 363.637 167.772 364.437 169.554 364.553C170.99 364.618 172.41 364.223 173.607 363.426C174.868 362.6 175.858 361.422 176.456 360.038C176.921 361.25 177.67 362.332 178.64 363.195C179.536 364.001 180.652 364.52 181.846 364.686C182.7 364.764 183.56 364.671 184.377 364.412C185.195 364.154 185.952 363.735 186.606 363.181C188.123 361.924 189.147 360.171 189.497 358.232C189.5 358.212 189.511 358.194 189.526 358.181C189.541 358.169 189.561 358.162 189.581 358.162C189.591 358.161 189.601 358.162 189.611 358.165C189.621 358.168 189.63 358.173 189.638 358.18C189.645 358.186 189.652 358.194 189.657 358.203C189.661 358.212 189.664 358.222 189.665 358.232C189.981 359.866 190.73 361.384 191.835 362.628C192.725 363.678 193.971 364.363 195.335 364.553C197.036 364.714 198.94 363.811 200.375 362.166C201.175 361.22 201.777 360.125 202.147 358.943C202.518 357.761 202.648 356.518 202.531 355.285L202.951 347.501L203.371 339.71C203.428 338.687 203.875 337.724 204.62 337.02C205.364 336.316 206.35 335.923 207.375 335.923H268.975C267.897 326.813 265.504 317.907 261.87 309.484C255.892 295.666 245 280.644 225.47 275.842Z" fill="#FFC0C0" stroke="black" stroke-width="3" stroke-miterlimit="10" stroke-linecap="round"/>
<path d="M441.812 335.923H380.912C380.914 326.965 384.474 318.374 390.809 312.04C397.144 305.706 405.736 302.148 414.694 302.148H441.812C444.03 302.147 446.226 302.583 448.275 303.431C450.325 304.279 452.187 305.523 453.755 307.091C455.324 308.659 456.568 310.52 457.417 312.569C458.266 314.618 458.703 316.814 458.703 319.032C458.704 321.25 458.268 323.447 457.419 325.497C456.571 327.547 455.326 329.409 453.758 330.978C452.189 332.546 450.327 333.791 448.277 334.639C446.227 335.488 444.03 335.924 441.812 335.923Z" fill="#F9851C" stroke="black" stroke-width="3" stroke-miterlimit="10" stroke-linecap="round"/>
<path d="M412.3 302.148C415.156 304.714 417.527 307.773 419.3 311.178C422.387 317.002 424.669 325.451 421.47 335.923" stroke="black" stroke-width="3" stroke-miterlimit="10" stroke-linecap="round"/>
<path d="M242.767 310.835L224.7 318.031L206.64 325.227C204.992 326.016 203.681 327.37 202.944 329.042C202.63 329.705 202.465 330.429 202.459 331.163C202.453 331.896 202.606 332.623 202.909 333.291C203.468 334.293 204.374 335.055 205.457 335.433C206.071 335.682 206.716 335.847 207.375 335.923" stroke="black" stroke-width="3" stroke-miterlimit="10" stroke-linecap="round"/>
<path d="M289.716 591.64C290.906 586.425 292.887 580.006 295.218 572.607C297.549 565.208 300.216 556.829 302.792 547.68C303.098 546.744 303.312 545.781 303.429 544.803C303.595 543.323 303.517 541.826 303.198 540.372C302.908 539.099 302.389 537.889 301.665 536.802C300.95 535.704 300.03 534.753 298.956 534.002C295.946 531.97 292.721 530.277 289.338 528.955C286.188 527.674 283.297 526.743 281.295 526.022C278.671 525.019 275.987 524.18 273.259 523.509C270.026 522.754 266.707 522.429 263.389 522.543C261.053 522.625 258.729 522.915 256.445 523.411C254.704 523.787 252.99 524.278 251.314 524.881C251.314 524.881 254.758 519.512 255.423 513.604C256.088 507.696 253.953 501.228 242.823 499.051L230.923 496.951L219.023 494.851C218.047 494.68 217.047 494.703 216.08 494.919C215.113 495.136 214.198 495.541 213.388 496.111C212.578 496.681 211.888 497.406 211.359 498.243C210.829 499.08 210.469 500.014 210.301 500.99L208.67 510.3L207.067 519.589C206.629 522.243 205.427 524.712 203.609 526.694C200.578 530.012 194.929 532.847 184.478 530.943L165.515 526.533L146.552 522.13C143.444 521.43 140.343 520.653 137.249 519.883C134.155 519.113 131.061 518.315 127.974 517.51C122.563 516.11 113.232 514.304 104.762 515.774C96.292 517.244 88.662 521.969 86.681 533.61L178.276 589.302L269.864 644.994C276.57 632.394 281.533 619.094 284.823 608.874C288.113 598.654 289.716 591.64 289.716 591.64Z" fill="#3E5844" stroke="black" stroke-width="3" stroke-miterlimit="10" stroke-linecap="round"/>
<path d="M251.3 524.902C248.167 528.454 244.713 531.708 240.982 534.625C234.815 539.448 226.618 544.194 218.512 543.893" stroke="black" stroke-width="3" stroke-miterlimit="10" stroke-linecap="round"/>
<path d="M195.223 531.181L199.556 538.881L203.896 546.581" stroke="black" stroke-width="3" stroke-miterlimit="10" stroke-linecap="round"/>
<path d="M172.795 528.5L176.043 536.473C177.121 539.133 178.201 541.791 179.284 544.446" stroke="black" stroke-width="3" stroke-miterlimit="10" stroke-linecap="round"/>
<path d="M153.482 524.125L156.527 532.966L159.6 541.8" stroke="black" stroke-width="3" stroke-miterlimit="10" stroke-linecap="round"/>
<path d="M269.689 548.569C268.656 549.881 267.199 550.794 265.568 551.152C263.937 551.51 262.233 551.292 260.745 550.534C259.257 549.776 258.078 548.526 257.408 546.996C256.739 545.466 256.621 543.752 257.074 542.144C257.527 540.537 258.523 539.137 259.893 538.182C261.263 537.227 262.922 536.777 264.587 536.908C266.251 537.039 267.819 537.744 269.023 538.901C270.226 540.059 270.991 541.598 271.187 543.256C271.299 544.197 271.225 545.15 270.968 546.062C270.711 546.974 270.276 547.826 269.689 548.569Z" fill="#14AF6C" stroke="black" stroke-width="3" stroke-miterlimit="10" stroke-linecap="round"/>
<path d="M270.018 645.288L178.5 589.302L86.961 533.302C85.6092 538.601 85.9897 544.194 88.0466 549.262C90.1036 554.329 93.7291 558.605 98.392 561.463L132.461 582.4L166.551 603.295C168.655 604.579 170.889 605.638 173.215 606.452C175.543 607.26 177.951 607.816 180.397 608.111L182.616 608.377L184.835 608.643C185.12 608.677 185.392 608.779 185.63 608.939C185.867 609.1 186.063 609.315 186.2 609.567C186.339 609.816 186.416 610.095 186.424 610.38C186.433 610.665 186.373 610.948 186.249 611.205C185.828 612.087 185.748 613.093 186.024 614.03C186.301 614.967 186.915 615.769 187.747 616.28L203.49 625.926L219.226 635.572C219.959 636.023 220.812 636.238 221.671 636.188C222.53 636.137 223.353 635.825 224.028 635.292L224.679 634.781L225.33 634.27C225.485 634.146 225.671 634.069 225.868 634.048C226.065 634.026 226.264 634.061 226.441 634.149C226.619 634.236 226.768 634.372 226.871 634.541C226.975 634.71 227.028 634.905 227.024 635.103L226.8 636.727L226.569 638.351C226.503 638.821 226.576 639.3 226.779 639.729C226.982 640.158 227.305 640.518 227.71 640.766L230.958 642.761L234.213 644.749C234.638 645.017 235.137 645.145 235.639 645.117C236.141 645.088 236.621 644.903 237.013 644.588L238.224 643.636L239.435 642.684C239.59 642.56 239.777 642.482 239.974 642.461C240.171 642.44 240.371 642.476 240.548 642.565C240.726 642.652 240.875 642.788 240.979 642.956C241.083 643.125 241.138 643.319 241.136 643.517L240.989 644.546L240.849 645.575C240.724 646.458 240.86 647.358 241.241 648.164C241.622 648.97 242.23 649.647 242.991 650.111L245.259 651.511L247.527 652.911C249.458 654.097 251.626 654.844 253.878 655.099C256.13 655.355 258.41 655.113 260.558 654.39C262.706 653.668 264.669 652.483 266.308 650.918C267.948 649.354 269.224 647.449 270.046 645.337L270.018 645.288Z" fill="#EF3F3F" stroke="black" stroke-width="3" stroke-miterlimit="10" stroke-linecap="round"/>
<path d="M194.012 319.571C193.312 322.98 192.612 326.571 192.003 330.386C191.394 334.201 190.897 338.177 190.505 342.349C190.244 345.149 190.045 347.877 189.91 350.532C189.775 353.187 189.693 355.754 189.665 358.232" stroke="black" stroke-width="3" stroke-miterlimit="10" stroke-linecap="round"/>
<path d="M176.456 360.038C176.498 355.285 176.701 350.301 177.107 345.114C177.513 339.927 178.129 334.551 178.99 329.014C179.256 327.313 179.543 325.64 179.837 323.988C180.131 322.336 180.446 320.719 180.775 319.123" stroke="black" stroke-width="3" stroke-miterlimit="10" stroke-linecap="round"/>
<path d="M168.371 318.766C167.904 320.539 167.459 322.355 167.034 324.212C166.609 326.069 166.208 327.978 165.83 329.938C164.871 334.88 164.178 339.647 163.688 344.204C163.198 348.761 162.918 353.108 162.792 357.21" stroke="black" stroke-width="3" stroke-miterlimit="10" stroke-linecap="round"/>
<path d="M491.939 335.923L462.448 335.839L432.95 335.748C430.01 335.748 427.056 335.811 424.102 335.86C421.148 335.909 418.194 335.951 415.254 335.86C413.18 335.841 411.147 335.284 409.353 334.243C408.455 333.722 407.703 332.983 407.166 332.095C406.629 331.207 406.324 330.198 406.28 329.161C406.229 327.982 406.513 326.812 407.099 325.787C407.676 324.757 408.469 323.864 409.423 323.169C410.951 322.172 412.712 321.591 414.533 321.482C416.381 321.272 418.299 321.258 420.021 320.971C421.318 320.756 422.606 320.502 423.885 320.208C425.166 319.907 426.44 319.571 427.693 319.179C430.648 318.304 433.49 317.087 436.163 315.553C438.843 314.03 441.161 311.945 442.96 309.442C443.573 308.563 444.096 307.625 444.521 306.642C444.949 305.656 445.272 304.629 445.487 303.576C445.771 302.2 445.75 300.778 445.424 299.411C445.105 298.049 444.45 296.788 443.52 295.743L443.205 295.414C443.093 295.302 442.988 295.204 442.883 295.113C440.132 292.607 435.771 291.816 430.556 292.649C425.341 293.482 419.265 295.939 413.056 299.922L411.656 300.811C411.189 301.105 410.723 301.392 410.256 301.672L399.917 307.741L389.571 313.81C389.284 313.978 388.99 314.16 388.703 314.342C388.416 314.524 388.129 314.706 387.842 314.888C385.561 316.419 382.982 317.452 380.275 317.919C378.021 318.227 376.131 317.835 374.92 316.715C374.495 316.319 374.153 315.843 373.912 315.315C373.767 314.996 373.654 314.663 373.576 314.321C373.095 312.703 373.201 310.968 373.877 309.421C374.626 307.874 376.159 306.383 378.854 304.85C384.958 301 391.615 296.8 398.3 292.642C404.985 288.484 411.6 284.277 417.683 280.469L415.499 279.706L413.315 278.95L412.685 281.477L412.055 283.997L394.611 294.959L377.132 305.9C377.601 303.191 378.112 300.72 378.623 298.515C379.134 296.31 379.645 294.371 380.107 292.733C381.766 286.818 383.159 281.946 384.923 278.187C386.687 274.428 388.822 271.796 391.958 270.368C393.145 269.831 394.408 269.483 395.703 269.339C396.695 269.225 397.697 269.211 398.692 269.297C399.251 268.367 399.885 267.484 400.589 266.658C401.509 265.583 402.552 264.62 403.697 263.788C406.173 262.03 409.039 260.901 412.048 260.498C414.501 260.17 416.984 260.128 419.447 260.372C428.442 261.072 438.347 262.367 446.411 263.543C454.475 264.719 460.691 265.783 462.294 266.056C464.609 267.338 466.835 268.774 468.958 270.354C471.26 272.071 473.422 273.967 475.426 276.024C485.877 286.741 490.231 300.013 491.862 311.451C492.978 319.568 493.004 327.799 491.939 335.923Z" fill="#FFC0C0" stroke="black" stroke-width="3" stroke-miterlimit="10" stroke-linecap="round"/>
<path d="M506.947 208.565L514.934 228.837L522.921 249.109L492.604 257.593L462.294 266.07" stroke="black" stroke-width="3" stroke-miterlimit="10" stroke-linecap="round"/>
<path d="M420 430.129L419.279 420.329L418.558 410.529" stroke="black" stroke-width="3" stroke-miterlimit="10" stroke-linecap="round"/>
<path d="M455.98 454.419V508.655V562.891" stroke="black" stroke-width="3" stroke-miterlimit="10" stroke-linecap="round"/>
<path d="M510.601 588.238V571.9C510.601 570.718 510.368 569.548 509.916 568.456C509.463 567.364 508.8 566.372 507.964 565.537C507.128 564.702 506.135 564.039 505.043 563.588C503.951 563.136 502.781 562.904 501.599 562.905H410.361C409.179 562.904 408.009 563.136 406.918 563.588C405.826 564.04 404.834 564.702 403.998 565.538C403.163 566.373 402.501 567.365 402.049 568.457C401.597 569.548 401.365 570.719 401.366 571.9V588.252" stroke="black" stroke-width="3" stroke-miterlimit="10" stroke-linecap="round"/>
<path d="M526.344 603.981C526.346 607.625 525.083 611.157 522.773 613.975C520.462 616.793 517.246 618.722 513.672 619.434C510.098 620.146 506.388 619.597 503.173 617.88C499.959 616.163 497.439 613.385 496.044 610.018C494.649 606.652 494.464 602.906 495.521 599.418C496.579 595.931 498.813 592.918 501.842 590.893C504.872 588.868 508.51 587.957 512.137 588.314C515.764 588.671 519.154 590.274 521.731 592.851C523.195 594.311 524.356 596.046 525.148 597.956C525.94 599.866 526.346 601.913 526.344 603.981Z" fill="black" stroke="black" stroke-width="3" stroke-miterlimit="10" stroke-linecap="round"/>
<path d="M417.109 603.981C417.111 607.625 415.848 611.157 413.538 613.975C411.227 616.793 408.011 618.722 404.437 619.434C400.863 620.146 397.153 619.597 393.938 617.88C390.724 616.163 388.204 613.385 386.809 610.018C385.414 606.652 385.229 602.906 386.286 599.418C387.344 595.931 389.578 592.918 392.607 590.893C395.637 588.868 399.275 587.957 402.902 588.314C406.529 588.671 409.919 590.274 412.496 592.851C413.96 594.311 415.121 596.046 415.913 597.956C416.705 599.866 417.111 601.913 417.109 603.981Z" fill="black" stroke="black" stroke-width="3" stroke-miterlimit="10" stroke-linecap="round"/>
<path d="M399.504 141.071L403.543 152.201L407.582 163.331L413.924 152.047L420.266 140.763L409.885 140.917L399.504 141.071Z" fill="#FFF8F8" stroke="black" stroke-width="3" stroke-miterlimit="10" stroke-linecap="round"/>
<path d="M457.982 191.478L432.782 177.408L407.582 163.331L423.766 134.274L439.943 105.21C442.953 119.588 445.961 133.966 448.966 148.344C451.971 162.722 454.977 177.1 457.982 191.478Z" fill="#3E5844" stroke="black" stroke-width="3" stroke-miterlimit="10" stroke-linecap="round"/>
<path d="M407.582 163.331L396.459 131.572L385.336 99.806L374.115 143.815L362.901 187.824L385.245 175.574L407.582 163.331Z" fill="#3E5844" stroke="black" stroke-width="3" stroke-miterlimit="10" stroke-linecap="round"/>
<path d="M363.405 306.243C363.403 307.188 363.074 308.104 362.473 308.834C361.872 309.564 361.036 310.063 360.109 310.246C359.181 310.429 358.219 310.285 357.386 309.838C356.552 309.392 355.9 308.67 355.539 307.796C355.178 306.922 355.131 305.95 355.406 305.046C355.681 304.141 356.261 303.36 357.048 302.835C357.834 302.31 358.778 302.074 359.719 302.167C360.66 302.26 361.54 302.676 362.208 303.345C362.588 303.726 362.89 304.177 363.095 304.675C363.301 305.172 363.406 305.705 363.405 306.243Z" fill="black" stroke="black" stroke-width="3" stroke-miterlimit="10" stroke-linecap="round"/>
<path d="M334.971 280.959L330.512 308.35L326.046 335.748" fill="black"/>
<path d="M334.971 280.959L330.512 308.35L326.046 335.748" stroke="black" stroke-width="3" stroke-miterlimit="10" stroke-linecap="round"/>
<path d="M398.692 269.311C398.454 269.822 398.167 270.466 397.845 271.222C397.523 271.978 397.187 272.846 396.844 273.812C396.256 275.471 395.822 276.948 395.493 278.243C395.164 279.538 394.926 280.651 394.737 281.575C394.27 283.806 393.785 286.188 393.281 288.722C392.777 291.256 392.25 293.949 391.699 296.8" stroke="black" stroke-width="3" stroke-miterlimit="10" stroke-linecap="round"/>
<path d="M389.144 289.919H294.931H200.718V222.866V155.806H294.931H389.144V222.866V289.919Z" fill="#2D2D29" stroke="black" stroke-width="3" stroke-miterlimit="10" stroke-linecap="round"/>
<path d="M300.314 325.227L304.584 307.573L308.861 289.919H291.984H275.114L270.837 307.573L266.567 325.227H266.56L265.265 330.575L263.977 335.923H280.847H297.724H323.113H348.502V330.575V325.227H324.408H300.314Z" fill="#2D2D29" stroke="black" stroke-width="3" stroke-miterlimit="10" stroke-linecap="round"/>
<path d="M455.7 86.261L439.824 84.525L423.948 82.789C423.733 87.0869 424.089 91.3944 425.005 95.599C426.952 104.699 431.816 112.915 438.858 119C440.838 120.714 442.965 122.251 445.214 123.592C447.359 120.776 449.21 117.748 450.737 114.555C453.647 108.456 455.383 101.864 455.854 95.123C456.056 92.17 456.004 89.2052 455.7 86.261Z" fill="black" stroke="black" stroke-width="3" stroke-miterlimit="10" stroke-linecap="round"/>
<path d="M434.434 114.555C433.671 113.666 433.097 112.91 432.656 112.294C432.215 111.678 431.956 111.195 431.725 110.852C431.494 110.509 431.438 110.362 431.326 110.152C431.214 109.942 431.109 109.753 431.032 109.599L431.41 109.767L431.865 109.956L432.271 110.096C432.509 110.18 432.838 110.278 433.167 110.362C434.983 110.83 436.884 110.851 438.71 110.423C440.535 109.995 442.23 109.132 443.649 107.906C445.067 106.681 446.168 105.13 446.857 103.386C447.545 101.642 447.801 99.7576 447.603 97.8933C447.404 96.0291 446.757 94.2407 445.716 92.6812C444.676 91.1217 443.273 89.8374 441.628 88.9384C439.982 88.0393 438.144 87.5522 436.269 87.5187C434.395 87.4852 432.54 87.9063 430.864 88.746C428.38 89.9951 426.403 92.0617 425.264 94.598C425.005 93.751 424.76 92.799 424.564 91.756C424.333 90.6297 424.162 89.4917 424.053 88.347C423.955 87.297 423.913 86.303 423.913 85.372C423.913 84.441 423.948 83.58 424.011 82.789L396.9 79.8L369.803 76.839C369.439 77.819 369.103 78.813 368.774 79.821C368.445 80.829 368.172 81.865 367.913 82.908C364.777 95.2725 366.359 108.362 372.351 119.623C378.07 130.123 387.59 138.117 399.539 141.043C407.921 143.079 416.729 142.453 424.739 139.251C432.86 135.992 439.936 130.575 445.2 123.585C443.789 122.724 442.425 121.789 441.112 120.785C439.943 119.903 438.956 119.063 438.144 118.335C437.696 117.936 437.136 117.404 436.499 116.767C435.862 116.13 435.169 115.416 434.434 114.555Z" fill="#FFC0C0" stroke="black" stroke-width="3" stroke-miterlimit="10" stroke-linecap="round"/>
<path d="M425.054 110.355C424.705 111.75 423.884 112.982 422.729 113.839C421.574 114.696 420.158 115.127 418.722 115.057C417.285 114.987 415.917 114.421 414.851 113.456C413.785 112.491 413.087 111.186 412.875 109.763C412.663 108.341 412.952 106.889 413.69 105.655C414.429 104.421 415.573 103.482 416.927 102.996C418.281 102.511 419.761 102.511 421.115 102.995C422.47 103.479 423.614 104.418 424.354 105.651C424.776 106.35 425.056 107.125 425.176 107.933C425.296 108.74 425.254 109.564 425.054 110.355Z" fill="#EF3F3F" stroke="black" stroke-width="3" stroke-miterlimit="10" stroke-linecap="round"/>
<path d="M386.953 121.66C386.605 123.054 385.785 124.284 384.632 125.141C383.479 125.998 382.064 126.428 380.629 126.359C379.194 126.29 377.828 125.725 376.762 124.761C375.697 123.797 374.999 122.493 374.787 121.072C374.576 119.651 374.863 118.201 375.601 116.968C376.339 115.736 377.481 114.797 378.834 114.312C380.186 113.828 381.665 113.827 383.018 114.31C384.371 114.793 385.514 115.731 386.253 116.963C387.097 118.375 387.349 120.063 386.953 121.66Z" fill="#EF3F3F" stroke="black" stroke-width="3" stroke-miterlimit="10" stroke-linecap="round"/>
<path d="M382.277 104.699C382.116 105.343 381.707 105.897 381.14 106.241C380.572 106.585 379.891 106.69 379.246 106.533C378.926 106.455 378.625 106.315 378.359 106.12C378.094 105.925 377.869 105.68 377.699 105.399C377.529 105.117 377.416 104.804 377.366 104.479C377.317 104.153 377.333 103.821 377.412 103.502C377.49 103.182 377.63 102.881 377.825 102.615C378.019 102.35 378.265 102.126 378.546 101.955C378.828 101.785 379.141 101.672 379.466 101.622C379.792 101.573 380.124 101.589 380.443 101.668C380.763 101.744 381.064 101.883 381.329 102.078C381.593 102.273 381.816 102.519 381.983 102.802C382.156 103.083 382.271 103.395 382.322 103.721C382.372 104.047 382.357 104.379 382.277 104.699Z" fill="#231F20"/>
<path d="M408.142 100.401C407.983 101.046 407.575 101.602 407.007 101.947C406.439 102.292 405.757 102.398 405.111 102.242C404.791 102.164 404.49 102.024 404.224 101.829C403.959 101.634 403.734 101.389 403.564 101.108C403.394 100.826 403.281 100.513 403.231 100.188C403.182 99.8625 403.198 99.5305 403.277 99.211C403.436 98.5657 403.844 98.0097 404.412 97.6647C404.98 97.3196 405.662 97.2137 406.308 97.37C406.628 97.4479 406.929 97.5882 407.195 97.7829C407.46 97.9775 407.684 98.2227 407.855 98.5044C408.025 98.786 408.138 99.0985 408.188 99.424C408.237 99.7495 408.221 100.082 408.142 100.401Z" fill="#231F20"/>
<path d="M380.912 89.992C386.05 87.9592 391.492 86.7998 397.012 86.562C399.368 86.4601 401.728 86.5256 404.075 86.758C405.986 86.9502 407.884 87.2541 409.759 87.668" stroke="black" stroke-width="3" stroke-miterlimit="10" stroke-linecap="round"/>
<path d="M388.087 88.536L389.382 100.345L390.684 112.154L392.329 111.832L393.981 111.517" stroke="black" stroke-width="3" stroke-miterlimit="10" stroke-linecap="round"/>
<path d="M422.8 46.032C412.035 43.4549 400.688 45.2149 391.209 50.932C381.295 56.8647 373.721 66.0232 369.754 76.874L412.734 81.571L455.7 86.261C454.824 76.8964 451.255 67.9859 445.424 60.606C439.702 53.3791 431.746 48.2536 422.8 46.032Z" fill="#3E5844" stroke="black" stroke-width="3" stroke-miterlimit="10" stroke-linecap="round"/>
<path d="M431.487 101.962L435.736 99.897L439.985 97.825" stroke="black" stroke-width="3" stroke-miterlimit="10" stroke-linecap="round"/>
<path d="M386.085 78.645C385.822 83.2488 384.178 87.6666 381.367 91.322C378.711 94.8143 374.983 97.3396 370.755 98.511C369.17 98.9342 367.537 99.1484 365.897 99.148C364.429 99.1456 362.967 98.9789 361.536 98.651C357.897 97.841 354.557 96.027 351.897 93.415C349.986 91.5517 348.514 89.2852 347.59 86.7808C346.666 84.2764 346.313 81.5973 346.556 78.939C346.702 77.3051 347.086 75.7015 347.697 74.179C349.061 70.8688 351.311 67.9987 354.2 65.884C355.631 64.7847 357.265 63.9789 359.008 63.5128C360.751 63.0467 362.569 62.9295 364.357 63.168C366.559 63.5383 368.629 64.4661 370.37 65.863C371.524 66.7649 372.557 67.8119 373.443 68.978C373.009 69.678 372.575 70.497 372.148 71.33C371.721 72.163 371.301 73.031 370.895 73.955C370.678 74.459 370.468 74.949 370.272 75.432C370.076 75.915 369.894 76.398 369.726 76.832L377.895 77.728L386.085 78.645Z" fill="black" stroke="black" stroke-width="3" stroke-miterlimit="10" stroke-linecap="round"/>
<path d="M377.356 63.182L414.981 68.138L452.606 73.087" stroke="black" stroke-width="3" stroke-miterlimit="10" stroke-linecap="round"/>
<path d="M388.738 64.68L387.037 71.624L385.336 78.568" stroke="black" stroke-width="3" stroke-miterlimit="10" stroke-linecap="round"/>
<path d="M403.578 66.738L401.975 73.304L400.365 79.863" stroke="black" stroke-width="3" stroke-miterlimit="10" stroke-linecap="round"/>
<path d="M421.694 69.3L420.112 75.747L418.53 82.194" stroke="black" stroke-width="3" stroke-miterlimit="10" stroke-linecap="round"/>
<path d="M440.195 71.715L438.697 77.819L437.199 83.916" stroke="black" stroke-width="3" stroke-miterlimit="10" stroke-linecap="round"/>
<path d="M410.543 114.968C410.477 114.729 410.36 114.507 410.202 114.316C410.043 114.125 409.846 113.971 409.622 113.862C409.399 113.753 409.156 113.694 408.908 113.686C408.66 113.679 408.413 113.725 408.184 113.82L404.425 115.388L400.659 116.956C399.399 118.78 398.486 120.821 397.964 122.976C397.547 124.628 397.312 126.32 397.264 128.023C398.604 128.53 400.032 128.768 401.464 128.723C402.883 128.68 404.273 128.316 405.531 127.659C407.635 126.504 409.26 124.638 410.116 122.395C411.064 120.032 411.214 117.424 410.543 114.968Z" fill="#EF3F3F" stroke="black" stroke-width="3" stroke-miterlimit="10" stroke-linecap="round"/>
<path d="M392.245 120.456C392.016 120.554 391.81 120.698 391.64 120.88C391.47 121.062 391.34 121.278 391.258 121.513C391.172 121.749 391.138 122 391.159 122.251C391.179 122.501 391.254 122.743 391.377 122.962C392.691 125.285 394.776 127.076 397.271 128.023C397.319 126.32 397.554 124.628 397.971 122.976C398.493 120.821 399.406 118.78 400.666 116.956L396.466 118.706L392.245 120.456Z" fill="black" stroke="black" stroke-width="3" stroke-miterlimit="10" stroke-linecap="round"/>
<path d="M441.763 555.247C437.85 544.663 434.336 535.465 431.487 528.15C428.638 520.835 426.447 515.396 425.187 512.316C424.679 511.025 424.046 509.788 423.297 508.62C422.257 506.998 420.891 505.611 419.286 504.546C418.533 504.052 417.728 503.644 416.885 503.328C415.434 502.799 413.926 502.447 412.391 502.278C410.629 502.128 408.855 502.206 407.113 502.509C402.984 503.182 398.92 504.21 394.968 505.582C392.286 506.421 389.659 507.424 387.1 508.585C384.092 509.99 381.283 511.788 378.749 513.933C376.97 515.442 375.33 517.108 373.849 518.91C372.715 520.285 371.673 521.732 370.727 523.243C370.727 523.243 370.118 516.894 366.975 511.84C363.832 506.786 358.162 503.034 348.075 508.221L337.4 513.947L326.76 519.666C325 520.616 323.689 522.226 323.115 524.143C322.541 526.059 322.752 528.125 323.701 529.886L328.188 538.174L332.675 546.469C333.968 548.819 334.554 551.493 334.362 554.169C334.033 558.649 331.352 564.375 321.958 569.345L304.332 577.64L286.706 585.9C283.822 587.258 280.924 588.588 278.012 589.89C275.1 591.192 272.181 592.485 269.255 593.768C264.138 596.015 255.696 600.376 249.949 606.767C244.202 613.158 241.143 621.593 246.785 631.967L353.185 619.024L459.585 606.088L450.66 580.657C447.701 572.196 444.736 563.726 441.763 555.247Z" fill="#3E5844" stroke="black" stroke-width="3" stroke-miterlimit="10" stroke-linecap="round"/>
<path d="M370.699 523.243C370.432 527.964 369.729 532.651 368.599 537.243C366.737 544.852 363.23 553.651 356.699 558.432" stroke="black" stroke-width="3" stroke-miterlimit="10" stroke-linecap="round"/>
<path d="M330.526 562.891L338.709 566.3L346.892 569.674" stroke="black" stroke-width="3" stroke-miterlimit="10" stroke-linecap="round"/>
<path d="M311.255 574.7L318.738 578.9L326.2 583.177" stroke="black" stroke-width="3" stroke-miterlimit="10" stroke-linecap="round"/>
<path d="M293.377 583.177L301.231 588.238L309.092 593.299" stroke="black" stroke-width="3" stroke-miterlimit="10" stroke-linecap="round"/>
<path d="M399.784 530.46C399.781 532.13 399.199 533.747 398.137 535.036C397.075 536.325 395.599 537.205 393.96 537.528C392.322 537.85 390.622 537.594 389.151 536.804C387.68 536.013 386.529 534.737 385.893 533.193C385.257 531.649 385.177 529.932 385.666 528.335C386.154 526.738 387.182 525.36 388.572 524.436C389.963 523.511 391.632 523.098 393.293 523.266C394.955 523.434 396.506 524.173 397.684 525.357C398.353 526.028 398.882 526.824 399.243 527.699C399.603 528.575 399.787 529.513 399.784 530.46Z" fill="#14AF6C" stroke="black" stroke-width="3" stroke-miterlimit="10" stroke-linecap="round"/>
<path d="M459.9 606.2L353.339 618.905L246.785 631.589C249.006 636.588 252.768 640.746 257.522 643.452C262.275 646.159 267.771 647.273 273.203 646.632L312.907 641.942L352.618 637.252C355.065 636.963 357.473 636.409 359.8 635.6C362.129 634.796 364.366 633.745 366.471 632.464L368.375 631.295L370.3 630.14C370.544 629.992 370.82 629.904 371.105 629.884C371.39 629.863 371.676 629.911 371.939 630.022C372.202 630.134 372.435 630.306 372.618 630.525C372.802 630.743 372.931 631.003 372.995 631.281C373.208 632.233 373.766 633.072 374.561 633.636C375.356 634.201 376.331 634.452 377.3 634.34L395.633 632.17L413.966 630C414.822 629.902 415.627 629.543 416.271 628.972C416.916 628.401 417.37 627.646 417.571 626.808L417.76 626.01L417.956 625.205C418.003 625.013 418.102 624.838 418.243 624.701C418.385 624.563 418.562 624.468 418.755 624.426C418.948 624.384 419.149 624.398 419.334 624.465C419.52 624.532 419.683 624.65 419.804 624.806L420.63 626.206L421.456 627.606C421.694 628.018 422.05 628.35 422.478 628.558C422.909 628.78 423.398 628.863 423.878 628.796L427.658 628.348L431.445 627.907C431.941 627.848 432.408 627.64 432.783 627.31C433.158 626.98 433.424 626.544 433.545 626.059L433.902 624.561L434.266 623.063C434.313 622.871 434.412 622.696 434.553 622.559C434.695 622.421 434.872 622.326 435.065 622.284C435.258 622.242 435.459 622.256 435.644 622.323C435.83 622.39 435.993 622.508 436.114 622.664L436.639 623.56L437.164 624.463C437.611 625.234 438.276 625.855 439.075 626.248C439.873 626.648 440.771 626.806 441.658 626.703L444.297 626.388L446.936 626.073C449.182 625.804 451.342 625.045 453.263 623.851C455.184 622.657 456.82 621.057 458.056 619.162C459.292 617.268 460.098 615.125 460.416 612.886C460.735 610.646 460.559 608.364 459.9 606.2Z" fill="#EF3F3F" stroke="black" stroke-width="3" stroke-miterlimit="10" stroke-linecap="round"/>
<path d="M522.2 454.685H422.345L420.448 432.6L418.558 410.522L470.358 410.662L522.158 410.795C523.105 410.794 524.043 410.98 524.918 411.342C525.793 411.704 526.589 412.235 527.258 412.905C527.928 413.574 528.459 414.37 528.821 415.245C529.183 416.12 529.369 417.058 529.368 418.005V447.468C529.369 448.415 529.183 449.353 528.821 450.228C528.459 451.103 527.928 451.899 527.258 452.568C526.589 453.238 525.793 453.769 524.918 454.131C524.043 454.493 523.105 454.679 522.158 454.678L522.2 454.685Z" fill="#D1B7E5" stroke="black" stroke-width="3" stroke-miterlimit="10" stroke-linecap="round"/>
<path d="M488.369 349.132L524.405 494.508L560.434 639.884" stroke="black" stroke-width="3" stroke-miterlimit="10" stroke-linecap="round"/>
<path d="M418.999 410.725L469 432.334L518.98 453.936C520.148 454.441 521.423 454.646 522.69 454.533C523.957 454.42 525.176 453.992 526.236 453.288C527.296 452.585 528.163 451.627 528.759 450.503C529.355 449.379 529.66 448.124 529.648 446.852L529.501 431.991L529.347 417.137C529.325 415.462 528.646 413.863 527.455 412.684C526.265 411.506 524.659 410.842 522.984 410.837L471.023 410.697L419.062 410.557C419.039 410.555 419.016 410.562 418.998 410.576C418.98 410.59 418.968 410.611 418.964 410.634C418.961 410.651 418.963 410.668 418.969 410.684C418.976 410.7 418.986 410.714 418.999 410.725Z" fill="black" stroke="black" stroke-width="3" stroke-miterlimit="10" stroke-linecap="round"/>
<path d="M507.108 208.971C509.735 215.635 512.358 222.294 514.976 228.949L522.851 248.927C522.869 248.972 522.869 249.022 522.851 249.067C522.84 249.089 522.824 249.108 522.804 249.124C522.785 249.14 522.763 249.151 522.739 249.158L505.4 254.009L488.054 258.867C488.024 258.874 487.993 258.874 487.963 258.865C487.934 258.856 487.907 258.84 487.886 258.818C487.863 258.794 487.847 258.765 487.841 258.732C487.835 258.7 487.838 258.666 487.851 258.636L497.315 233.8L506.8 208.978C506.812 208.945 506.834 208.916 506.862 208.896C506.891 208.876 506.926 208.865 506.961 208.866C506.993 208.868 507.024 208.878 507.05 208.897C507.076 208.916 507.096 208.941 507.108 208.971Z" fill="black" stroke="black" stroke-width="3" stroke-miterlimit="10" stroke-linecap="round"/>
</svg>
