<svg width="auto" height="auto" viewBox="0 0 700 700" fill="none" xmlns="http://www.w3.org/2000/svg">
<g id="DrawKit Vector Illustration Fun &#38; Playful Finn Character (11) 1">
<g id="right-arm">
<path id="Vector" d="M196.847 363.02C190.162 339.92 183.939 318.08 177.723 296.254C171.507 274.428 165.291 252.588 158.599 229.481C158.427 228.875 158.209 228.283 157.948 227.71C157.685 227.14 157.369 226.596 157.003 226.086C155.637 224.176 153.662 222.786 151.403 222.145C149.459 221.548 147.358 221.744 145.558 222.691C144.125 223.559 143.031 224.89 142.457 226.464C141.791 228.235 141.608 230.15 141.925 232.015L145.565 254.919L149.212 277.83C148.071 277.141 146.842 276.611 145.558 276.255C143.264 275.562 140.806 275.636 138.558 276.465C135.887 277.562 133.731 279.631 132.524 282.254C131.152 285.172 130.774 288.459 131.446 291.613C129.972 289.788 128.018 288.411 125.804 287.637C123.715 286.894 121.447 286.821 119.315 287.427C116.564 288.29 114.264 290.205 112.917 292.754C111.426 295.501 110.996 298.699 111.706 301.742C110.511 301.023 109.226 300.465 107.884 300.083C105.664 299.381 103.266 299.503 101.129 300.426C100.723 300.624 100.337 300.858 99.974 301.126C99.2404 301.656 98.5771 302.277 98 302.974C95.753 305.683 95.067 309.12 94.99 312.074C94.9573 314.241 95.1924 316.404 95.69 318.514L103.782 352.723L111.874 386.932L154.343 374.969L196.847 363.02Z" fill="#FFC0C0" stroke="black" stroke-width="3" stroke-miterlimit="10" stroke-linecap="round"/>
<path id="Vector_2" d="M96.341 321.132C97.531 323.47 98.742 325.808 99.974 328.132C101.206 330.456 102.466 332.766 103.74 335.062C104.776 336.924 105.756 338.821 106.771 340.697C107.786 342.573 108.871 344.428 110.033 346.206C111.196 348.025 112.532 349.726 114.023 351.288C115.468 352.88 117.362 353.996 119.455 354.487C121.043 354.766 122.679 354.472 124.071 353.658C125.463 352.844 126.521 351.563 127.057 350.042C127.539 348.341 127.599 346.549 127.232 344.82C126.938 342.993 126.406 341.173 126.021 339.633C123.641 333.319 121.263 327.005 118.888 320.691L111.755 301.749" stroke="black" stroke-width="3" stroke-miterlimit="10" stroke-linecap="round"/>
<path id="Vector_3" d="M125.818 339.129C126.797 342.058 128.4 344.74 130.515 346.99C132.335 348.796 134.309 349.713 136.15 349.517C136.975 349.417 137.765 349.122 138.453 348.656C138.918 348.348 139.348 347.989 139.734 347.585C141.834 345.485 142.534 342.426 142.667 339.353C142.673 336.504 142.38 333.663 141.792 330.876C140.357 323.176 138.446 315.476 136.563 308.595C134.68 301.714 132.825 295.757 131.495 291.613" stroke="black" stroke-width="3" stroke-miterlimit="10" stroke-linecap="round"/>
<path id="Vector_4" d="M142.954 336.371C143.557 337.906 144.354 339.358 145.327 340.69C146.811 342.706 148.995 344.722 151.907 345.016C152.309 345.064 152.714 345.075 153.118 345.051C153.715 345.02 154.302 344.887 154.854 344.659C156.541 343.959 157.836 342.349 158.627 340.137C159.48 337.513 159.736 334.732 159.376 331.996C157.682 322.975 155.99 313.948 154.301 304.913C152.612 295.878 150.92 286.851 149.226 277.83" stroke="black" stroke-width="3" stroke-miterlimit="10" stroke-linecap="round"/>
<g id="Vector_5">
<path d="M179.501 302.484C172.557 302.071 165.634 301.497 158.718 300.853C151.802 300.209 144.886 299.453 137.97 298.753C134.904 298.445 129.983 297.514 125.601 297.759C121.219 298.004 117.383 299.425 116.501 303.807C115.724 307.601 117.411 309.918 119.959 311.507C122.507 313.096 125.916 313.992 128.562 314.916C133.056 316.491 136.437 317.674 138.81 318.605C141.183 319.536 142.555 320.208 143.01 320.754C145.11 323.099 145.208 325.738 144.963 329.105C144.718 332.472 144.074 336.574 144.585 341.845C144.893 344.982 145.56 348.072 146.573 351.057C147.979 355.174 149.908 359.094 152.313 362.719" fill="#FFC0C0"/>
<path d="M179.501 302.484C172.557 302.071 165.634 301.497 158.718 300.853C151.802 300.209 144.886 299.453 137.97 298.753C134.904 298.445 129.983 297.514 125.601 297.759C121.219 298.004 117.383 299.425 116.501 303.807C115.724 307.601 117.411 309.918 119.959 311.507C122.507 313.096 125.916 313.992 128.562 314.916C133.056 316.491 136.437 317.674 138.81 318.605C141.183 319.536 142.555 320.208 143.01 320.754C145.11 323.099 145.208 325.738 144.963 329.105C144.718 332.472 144.074 336.574 144.585 341.845C144.893 344.982 145.56 348.072 146.573 351.057C147.979 355.174 149.908 359.094 152.313 362.719" stroke="black" stroke-width="3" stroke-miterlimit="10" stroke-linecap="round"/>
</g>
</g>
<g id="body">
<path id="Vector_6" d="M260.029 578.641L383.845 581.441L507.654 584.241C507.654 584.241 531.146 594.307 555.051 592.795C578.956 591.283 603.288 578.2 604.968 531.895C604.968 531.895 604.968 525.084 601.587 503.93C598.206 482.776 591.43 447.3 577.892 389.9C575.47 379.588 571.887 369.584 567.21 360.08C562.538 350.578 556.743 341.671 549.948 333.55C549.206 332.668 548.448 331.786 547.673 330.904C546.898 330.022 546.107 329.154 545.3 328.3C530.809 312.855 512.975 300.933 493.164 293.447C481.21 288.856 468.727 285.785 456.008 284.305C456.008 284.305 408.695 277.928 358.197 284.053C307.699 290.178 253.974 308.798 241.227 358.792C237.466 371.859 233.709 384.909 229.957 397.943C226.205 410.977 222.448 424.025 218.687 437.087C215.066 424.809 211.442 412.529 207.816 400.246L196.938 363.412L154.469 375.375L112 387.338C115.192 400.895 118.386 414.454 121.583 428.015L131.159 468.699C136.059 491.386 139.195 504.798 141.071 512.547C142.947 520.296 143.57 522.347 143.57 522.347C145.155 530.349 147.888 538.08 151.683 545.3C157.479 556.444 167.181 569.247 183.183 578.2C201.677 588.504 220.199 588.973 234.437 586.691C243.326 585.319 251.955 582.605 260.029 578.641Z" fill="#3E5844" stroke="black" stroke-width="3" stroke-miterlimit="10" stroke-linecap="round"/>
<path id="Vector_7" d="M408.366 535.388L427.357 542.829L433.832 545.363L444.332 551.341C449.932 554.526 456.232 558.124 459.116 559.741C464.541 562.8 471.247 566.461 479.318 570.591C487.389 574.721 496.818 579.327 507.682 584.29L480.648 583.555L453.614 582.855L431.004 559.139L408.366 535.388Z" fill="black" stroke="black" stroke-width="3" stroke-miterlimit="10" stroke-linecap="round"/>
<path id="Vector_8" d="M328.741 289.163L317.254 324.632L305.767 360.101L332.773 342.853L359.786 325.605L344.26 307.384L328.741 289.163Z" fill="#3E5844" stroke="black" stroke-width="3" stroke-miterlimit="10" stroke-linecap="round"/>
<path id="Vector_9" d="M310.982 495.404C310.982 496.287 310.675 497.142 310.115 497.824C309.554 498.506 308.774 498.973 307.908 499.144C307.042 499.316 306.144 499.182 305.366 498.765C304.587 498.348 303.978 497.674 303.641 496.858C303.304 496.042 303.26 495.135 303.518 494.29C303.775 493.446 304.317 492.717 305.052 492.227C305.786 491.738 306.668 491.518 307.547 491.606C308.425 491.694 309.246 492.084 309.869 492.709C310.581 493.425 310.981 494.394 310.982 495.404Z" fill="black" stroke="black" stroke-width="3" stroke-miterlimit="10" stroke-linecap="round"/>
<path id="Vector_10" d="M359.786 325.605L380.891 303.506L401.996 281.4L406.126 324.751L410.256 368.102L385.021 346.857L359.786 325.605Z" fill="#3E5844" stroke="black" stroke-width="3" stroke-miterlimit="10" stroke-linecap="round"/>
<path id="Vector_11" d="M340.466 302.932L350.126 314.272L359.786 325.605L370.909 313.957L382.032 302.316L361.249 302.624L340.466 302.932Z" fill="#FFF8F8" stroke="black" stroke-width="3" stroke-miterlimit="10" stroke-linecap="round"/>
<path id="Vector_12" d="M359.632 326.459L338.401 453.033L317.177 579.6L356.552 580.58L395.934 581.553L377.937 454.013L359.94 326.459C359.936 326.421 359.918 326.386 359.89 326.362C359.861 326.337 359.824 326.324 359.786 326.326C359.749 326.326 359.712 326.339 359.684 326.363C359.656 326.388 359.637 326.422 359.632 326.459Z" fill="#FFF8F8" stroke="black" stroke-width="3" stroke-miterlimit="10" stroke-linecap="round"/>
<path id="Vector_13" d="M484.645 412.391C486.451 422.555 488.255 432.721 490.056 442.89C491.857 453.059 493.661 463.223 495.467 473.382" stroke="black" stroke-width="3" stroke-miterlimit="10" stroke-linecap="round"/>
<path id="Vector_14" d="M218.498 436.03L220.262 444.752L222.026 453.481" stroke="black" stroke-width="3" stroke-miterlimit="10" stroke-linecap="round"/>
<path id="Vector_15" d="M270.9 427.441C269.085 452.641 267.274 477.841 265.468 503.041C263.662 528.241 261.854 553.441 260.043 578.641" stroke="black" stroke-width="3" stroke-miterlimit="10" stroke-linecap="round"/>
<path id="Vector_16" d="M327.467 444.752C322.726 425.433 319.339 405.806 317.331 386.015C314.062 353.465 314.377 314.566 328.734 289.163" stroke="black" stroke-width="3" stroke-miterlimit="10" stroke-linecap="round"/>
<path id="Vector_17" d="M383.054 444.752C392.429 425.127 400.156 404.757 406.154 383.852C415.779 349.951 421.554 309.113 406.245 281.365" stroke="black" stroke-width="3" stroke-miterlimit="10" stroke-linecap="round"/>
<path id="Vector_18" d="M320.334 429.597C320.334 430.48 320.027 431.335 319.467 432.017C318.906 432.699 318.126 433.166 317.26 433.337C316.394 433.509 315.496 433.375 314.718 432.958C313.939 432.541 313.33 431.867 312.993 431.051C312.656 430.235 312.612 429.328 312.87 428.483C313.127 427.639 313.669 426.91 314.404 426.42C315.138 425.931 316.02 425.711 316.899 425.799C317.777 425.887 318.598 426.277 319.221 426.902C319.575 427.256 319.856 427.676 320.047 428.138C320.238 428.601 320.335 429.097 320.334 429.597Z" fill="black" stroke="black" stroke-width="3" stroke-miterlimit="10" stroke-linecap="round"/>
<path id="Vector_19" d="M507.654 584.29C499.287 580.44 490.775 576.331 482.118 571.963C473.461 567.595 464.683 562.945 455.784 558.012C452.013 555.917 448.299 553.817 444.64 551.712C440.981 549.607 437.379 547.491 433.832 545.363C436.1 530.808 438.37 516.257 440.643 501.711C442.916 487.165 445.186 472.614 447.454 458.059L486.402 471.1L525.35 484.148" stroke="black" stroke-width="3" stroke-miterlimit="10" stroke-linecap="round"/>
<path id="Vector_20" d="M484.701 412.713L490.077 442.981C491.86 453.075 493.649 463.167 495.446 473.256C495.452 473.267 495.455 473.279 495.455 473.291C495.455 473.303 495.452 473.315 495.446 473.326C495.434 473.333 495.421 473.336 495.408 473.336C495.394 473.336 495.381 473.333 495.369 473.326L481.789 469L468.244 464.674C468.224 464.668 468.207 464.654 468.197 464.636C468.187 464.618 468.184 464.596 468.188 464.576L476.371 438.627C479.096 429.984 481.822 421.335 484.547 412.678C484.554 412.661 484.566 412.647 484.581 412.637C484.595 412.627 484.613 412.622 484.631 412.622C484.652 412.625 484.671 412.637 484.684 412.654C484.697 412.671 484.703 412.692 484.701 412.713Z" fill="black" stroke="black" stroke-width="3" stroke-miterlimit="10" stroke-linecap="round"/>
</g>
<g id="binocular">
<path id="Vector_21" d="M339.164 444.752H329.287H319.41L318.591 449.617L317.772 454.482H329.175H340.578L339.871 449.617L339.164 444.752Z" fill="#F7CE21" stroke="black" stroke-width="3" stroke-miterlimit="10" stroke-linecap="round"/>
<path id="Vector_22" d="M353.822 545.482L347.2 499.982L340.578 454.482H329.175H317.772L310.226 499.282L302.68 544.075L328.251 544.782L353.822 545.482Z" fill="#14AF6C" stroke="black" stroke-width="3" stroke-miterlimit="10" stroke-linecap="round"/>
<path id="Vector_23" d="M306.194 523.215C311.022 521.034 316.122 519.515 321.356 518.7C330.127 517.3 341.278 517.685 350.798 524.706" stroke="black" stroke-width="3" stroke-miterlimit="10" stroke-linecap="round"/>
<path id="Vector_24" d="M393.043 444.752H383.166H373.289L372.47 449.617L371.651 454.482H383.054H394.457L393.75 449.617L393.043 444.752Z" fill="#F7CE21" stroke="black" stroke-width="3" stroke-miterlimit="10" stroke-linecap="round"/>
<path id="Vector_25" d="M407.694 545.482L401.079 499.982L394.457 454.482H383.054H371.651L364.098 499.282L356.552 544.075L382.123 544.782L407.694 545.482Z" fill="#14AF6C" stroke="black" stroke-width="3" stroke-miterlimit="10" stroke-linecap="round"/>
<path id="Vector_26" d="M354.389 544.075C354.389 548.128 351.47 551.775 346.759 554.449C342.048 557.123 335.559 558.747 328.349 558.747C321.139 558.747 314.65 557.102 309.939 554.449C305.228 551.796 302.316 548.149 302.316 544.075C302.316 540.001 305.228 536.375 309.939 533.708C314.65 531.041 321.139 529.41 328.349 529.41C335.559 529.41 342.048 531.055 346.759 533.708C351.47 536.361 354.389 540.029 354.389 544.075Z" fill="black" stroke="black" stroke-width="3" stroke-miterlimit="10" stroke-linecap="round"/>
<path id="Vector_27" d="M408.366 544.075C408.366 548.128 405.461 551.775 400.778 554.449C396.095 557.123 389.613 558.747 382.459 558.747C375.305 558.747 368.83 557.102 364.14 554.449C359.45 551.796 356.552 548.149 356.552 544.075C356.552 540.001 359.45 536.375 364.14 533.708C368.83 531.041 375.305 529.41 382.459 529.41C389.613 529.41 396.088 531.055 400.778 533.708C405.468 536.361 408.366 540.029 408.366 544.075Z" fill="black" stroke="black" stroke-width="3" stroke-miterlimit="10" stroke-linecap="round"/>
<path id="Vector_28" d="M360.066 523.215C364.896 521.035 369.999 519.516 375.235 518.7C384.006 517.3 395.157 517.685 404.67 524.706" stroke="black" stroke-width="3" stroke-miterlimit="10" stroke-linecap="round"/>
<path id="Vector_29" d="M366.002 487.991L355.747 488.152L345.499 488.313L344.316 480.172L343.133 472.038H355.915H368.704L367.353 480.011L366.002 487.991Z" fill="black" stroke="black" stroke-width="3" stroke-miterlimit="10" stroke-linecap="round"/>
</g>
<g id="left-arm">
<g id="Vector_30">
<path d="M447.454 458.059C438.742 454.294 429.651 451.478 420.336 449.659C405.265 446.768 387.163 446.523 375.046 457.086L354.2 473.634L333.34 490.196C331.378 491.712 329.676 493.537 328.3 495.6C326.34 498.694 325.5 502.6 330.085 505.82C328.954 507.635 328.104 509.61 327.565 511.679C326.865 514.738 327.257 518.063 331.674 519.113C330.715 520.889 330.107 522.833 329.882 524.839C329.686 527.744 330.876 530.747 336.441 531.139C335.625 532.437 335.08 533.887 334.838 535.402C334.601 536.61 334.837 537.862 335.496 538.902C337.288 541.359 339.759 541.457 342.209 540.596C344.659 539.735 347.067 537.908 348.747 536.515C351.323 534.373 353.801 532.175 356.328 530.033C358.847 527.858 361.478 525.815 364.21 523.915C368.798 520.776 373.613 517.982 378.616 515.557C382.803 513.523 387.112 511.749 391.517 510.244C393.206 509.663 394.932 509.195 396.683 508.844C398.432 508.496 400.207 508.288 401.989 508.221C404.789 508.116 407.736 508.354 408.681 509.621C409.626 510.888 408.604 513.212 403.543 517.258C403.977 520.142 404.406 523.021 404.831 525.896C405.256 528.771 405.685 531.648 406.119 534.527L420 539.931L433.867 545.363L440.678 501.711L447.489 458.059" fill="#FFC0C0"/>
<path d="M447.454 458.059C438.742 454.294 429.651 451.478 420.336 449.659C405.265 446.768 387.163 446.523 375.046 457.086L354.2 473.634L333.34 490.196C331.378 491.712 329.676 493.537 328.3 495.6C326.34 498.694 325.5 502.6 330.085 505.82C328.954 507.635 328.104 509.61 327.565 511.679C326.865 514.738 327.257 518.063 331.674 519.113C330.715 520.889 330.107 522.833 329.882 524.839C329.686 527.744 330.876 530.747 336.441 531.139C335.625 532.437 335.08 533.887 334.838 535.402C334.601 536.61 334.837 537.862 335.496 538.902C337.288 541.359 339.759 541.457 342.209 540.596C344.659 539.735 347.067 537.908 348.747 536.515C351.323 534.373 353.801 532.175 356.328 530.033C358.847 527.858 361.478 525.815 364.21 523.915C368.798 520.776 373.613 517.982 378.616 515.557C382.803 513.523 387.112 511.749 391.517 510.244C393.206 509.663 394.932 509.195 396.683 508.844C398.432 508.496 400.207 508.288 401.989 508.221C404.789 508.116 407.736 508.354 408.681 509.621C409.626 510.888 408.604 513.212 403.543 517.258C403.977 520.142 404.406 523.021 404.831 525.896C405.256 528.771 405.685 531.648 406.119 534.527L420 539.931L433.867 545.363L440.678 501.711L447.489 458.059" stroke="black" stroke-width="3" stroke-miterlimit="10" stroke-linecap="round"/>
</g>
<path id="Vector_31" d="M330.064 505.799L351.162 489.748L372.26 473.69" stroke="black" stroke-width="3" stroke-miterlimit="10" stroke-linecap="round"/>
<path id="Vector_32" d="M331.653 519.092L352.45 503.706L373.254 488.313" stroke="black" stroke-width="3" stroke-miterlimit="10" stroke-linecap="round"/>
<path id="Vector_33" d="M336.42 531.083L354.837 517.391L373.254 503.706" stroke="black" stroke-width="3" stroke-miterlimit="10" stroke-linecap="round"/>
</g>
<g id="head">
<path id="Vector_34" d="M428.064 258.853L409.29 250.894L390.516 242.935C388.679 248.117 387.53 253.519 387.1 259C386.133 270.83 389.048 282.652 395.402 292.677C397.194 295.504 399.232 298.167 401.492 300.636C405.16 297.975 408.546 294.947 411.6 291.599C417.397 285.21 421.944 277.79 425.005 269.724C426.332 266.194 427.355 262.557 428.064 258.853Z" fill="black" stroke="black" stroke-width="3" stroke-miterlimit="10" stroke-linecap="round"/>
<path id="Vector_35" d="M391.636 285.6C391.034 284.2 390.607 283.094 390.299 282.177C389.991 281.26 389.809 280.567 389.683 280.077C389.592 279.713 389.515 279.377 389.452 279.069C389.389 278.761 389.34 278.509 389.298 278.285L389.697 278.635L390.194 279.034C390.194 279.034 390.362 279.167 390.628 279.349C390.894 279.531 391.258 279.783 391.629 280.007C393.677 281.236 395.991 281.952 398.376 282.094C400.76 282.235 403.143 281.798 405.322 280.819C407.501 279.841 409.411 278.35 410.889 276.473C412.367 274.597 413.369 272.391 413.81 270.044C414.251 267.696 414.118 265.277 413.422 262.992C412.726 260.707 411.488 258.625 409.814 256.922C408.139 255.219 406.077 253.946 403.804 253.212C401.531 252.478 399.114 252.305 396.76 252.707C393.259 253.317 390.073 255.111 387.737 257.789C387.737 256.662 387.779 255.409 387.905 254.058C388.036 252.594 388.246 251.138 388.535 249.697C388.794 248.381 389.109 247.142 389.452 246.008C389.795 244.874 390.152 243.831 390.516 242.893L358.477 229.306L326.438 215.719C325.635 216.774 324.851 217.863 324.086 218.988C323.321 220.113 322.593 221.265 321.902 222.446C313.145 237.307 310.702 253.988 313.824 268.954C316.946 283.92 325.654 297.171 339.185 305.144C348.692 310.725 359.704 313.201 370.685 312.228C381.821 311.225 392.472 307.197 401.485 300.58C400.071 299.019 398.741 297.383 397.502 295.68C396.396 294.161 395.493 292.782 394.772 291.592C394.373 290.934 393.876 290.087 393.337 289.072C392.798 288.057 392.217 286.93 391.636 285.6Z" fill="#FFC0C0" stroke="black" stroke-width="3" stroke-miterlimit="10" stroke-linecap="round"/>
<path id="Vector_36" d="M381.717 277.025C380.785 278.605 379.334 279.814 377.611 280.444C375.888 281.075 374 281.089 372.268 280.483C370.536 279.877 369.067 278.69 368.113 277.123C367.158 275.556 366.776 273.707 367.032 271.89C367.288 270.073 368.166 268.402 369.516 267.159C370.866 265.917 372.606 265.182 374.438 265.078C376.269 264.975 378.081 265.509 379.562 266.591C381.044 267.673 382.105 269.236 382.564 271.012C382.825 272.021 382.884 273.071 382.739 274.103C382.593 275.135 382.246 276.128 381.717 277.025Z" fill="#EF3F3F" stroke="black" stroke-width="3" stroke-miterlimit="10" stroke-linecap="round"/>
<path id="Vector_37" d="M330.974 276.843C330.048 278.427 328.601 279.641 326.88 280.277C325.159 280.914 323.271 280.935 321.536 280.335C319.802 279.736 318.33 278.553 317.369 276.99C316.409 275.426 316.021 273.578 316.271 271.76C316.52 269.942 317.393 268.267 318.739 267.02C320.085 265.774 321.822 265.032 323.654 264.922C325.485 264.813 327.298 265.342 328.784 266.419C330.269 267.496 331.335 269.055 331.8 270.83C332.332 272.865 332.035 275.027 330.974 276.843Z" fill="#EF3F3F" stroke="black" stroke-width="3" stroke-miterlimit="10" stroke-linecap="round"/>
<g id="right-eye">
<path id="Vector_38" d="M331.499 254.38C331.293 254.755 331.013 255.085 330.677 255.35C330.341 255.615 329.955 255.81 329.542 255.923C329.129 256.036 328.698 256.065 328.273 256.008C327.849 255.952 327.44 255.811 327.072 255.593C326.703 255.376 326.382 255.087 326.127 254.743C325.872 254.399 325.688 254.007 325.588 253.591C325.487 253.175 325.47 252.743 325.539 252.321C325.609 251.898 325.762 251.494 325.99 251.132C326.422 250.402 327.125 249.872 327.947 249.66C328.768 249.447 329.64 249.569 330.372 249.998C331.101 250.433 331.629 251.137 331.842 251.958C331.947 252.364 331.971 252.788 331.912 253.203C331.853 253.619 331.713 254.019 331.499 254.38Z" fill="#231F20"/>
</g>
<g id="left-eye">
<path id="Vector_39" d="M364.7 258.643C364.494 259.018 364.214 259.348 363.878 259.613C363.542 259.878 363.156 260.073 362.743 260.186C362.33 260.299 361.899 260.328 361.474 260.271C361.05 260.215 360.641 260.074 360.273 259.856C359.904 259.639 359.583 259.35 359.328 259.006C359.073 258.662 358.889 258.27 358.789 257.854C358.688 257.438 358.671 257.006 358.74 256.584C358.81 256.161 358.963 255.757 359.191 255.395C359.623 254.667 360.325 254.138 361.145 253.926C361.964 253.714 362.835 253.834 363.566 254.261C363.928 254.474 364.245 254.757 364.498 255.092C364.751 255.428 364.936 255.81 365.041 256.217C365.147 256.624 365.171 257.048 365.112 257.464C365.053 257.88 364.913 258.281 364.7 258.643Z" fill="#231F20"/>
</g>
<path id="Vector_40" d="M335.237 235.9C338.28 235.645 341.338 235.608 344.386 235.788C353.84 236.353 363.044 239.043 371.315 243.656" stroke="black" stroke-width="3" stroke-miterlimit="10" stroke-linecap="round"/>
<path id="Vector_41" d="M344.54 236.761L341.789 251.678L339.031 266.588L341.166 266.805L343.294 267.029" stroke="black" stroke-width="3" stroke-miterlimit="10" stroke-linecap="round"/>
<path id="Vector_42" d="M392.658 269.136L398.615 268.17L404.572 267.204" stroke="black" stroke-width="3" stroke-miterlimit="10" stroke-linecap="round"/>
<g id="hat">
<path id="Vector_43" d="M402.633 202.264C390.173 194.921 375.802 193.325 362.208 196.664C347.912 200.269 335.285 208.67 326.438 220.464L377.251 241.996L428.064 263.542C430.439 251.77 429.352 239.562 424.935 228.395C420.595 217.458 412.752 208.269 402.633 202.264Z" fill="#3E5844" stroke="black" stroke-width="3" stroke-miterlimit="10" stroke-linecap="round"/>
<path id="Vector_44" d="M345.737 223.937C343.718 229.47 340.082 234.267 335.3 237.706C330.768 240.998 325.284 242.719 319.683 242.606C317.59 242.54 315.514 242.202 313.509 241.598C311.717 241.048 309.99 240.306 308.357 239.386C304.207 237.056 300.793 233.61 298.501 229.439C296.852 226.457 295.888 223.145 295.679 219.744C295.469 216.343 296.02 212.938 297.29 209.776C298.075 207.835 299.136 206.017 300.44 204.379C303.335 200.817 307.165 198.132 311.5 196.623C315.868 195.118 320.6 194.971 324.919 197.036C327.472 198.301 329.662 200.194 331.282 202.538C332.356 204.066 333.231 205.724 333.886 207.473C333.088 208.215 332.269 209.02 331.443 209.874C330.617 210.728 329.784 211.652 328.944 212.632C328.489 213.157 328.055 213.689 327.642 214.207C327.229 214.725 326.83 215.243 326.445 215.754L336.098 219.842L345.737 223.937Z" fill="black" stroke="black" stroke-width="3" stroke-miterlimit="10" stroke-linecap="round"/>
<path id="Vector_45" d="M340.753 201.824L384.923 221.718L429.1 241.605" stroke="black" stroke-width="3" stroke-miterlimit="10" stroke-linecap="round"/>
<path id="Vector_46" d="M354.116 207.844L349.475 215.698L344.841 223.559" stroke="black" stroke-width="3" stroke-miterlimit="10" stroke-linecap="round"/>
<path id="Vector_47" d="M371.504 215.817L367.122 223.244L362.74 230.671" stroke="black" stroke-width="3" stroke-miterlimit="10" stroke-linecap="round"/>
<path id="Vector_48" d="M392.7 225.61L388.395 232.911L384.097 240.205" stroke="black" stroke-width="3" stroke-miterlimit="10" stroke-linecap="round"/>
<path id="Vector_49" d="M414.428 235.361L410.354 242.27L406.287 249.172" stroke="black" stroke-width="3" stroke-miterlimit="10" stroke-linecap="round"/>
</g>
<g id="mouth">
<path id="happy" d="M338.8 278.075C340.195 279.601 341.953 280.749 343.91 281.414C347.102 282.464 351.61 282.268 356.692 277.291" stroke="black" stroke-width="3" stroke-miterlimit="10" stroke-linecap="round"/>
</g>
</g>
</g>
</svg>
