<svg width="auto" height="auto" viewBox="0 0 700 700" fill="none" xmlns="http://www.w3.org/2000/svg">
<path d="M317.716 281.876C317.716 281.876 358.316 262.668 408.842 260.687C459.368 258.706 519.715 273.987 559.209 342.874L586.11 389.074L613.011 435.274C615.288 439.175 617.622 443.039 620.011 446.866C622.4 450.693 624.797 454.526 627.2 458.367C636.069 472.402 639.8 487.942 638.897 502.327C637.994 516.712 632.534 529.963 623.021 539.427C616.654 545.645 608.796 550.121 600.201 552.426C593.361 554.283 586.286 555.13 579.201 554.939C568.836 554.706 558.469 554.498 548.1 554.316C537.731 554.134 527.364 554.043 516.999 554.043H227.605C214.216 554.043 200.828 554.106 187.439 554.232C174.05 554.358 160.664 554.535 147.28 554.764C142.512 554.866 137.755 554.255 133.168 552.951C127.303 551.291 121.917 548.261 117.453 544.11C110.904 537.887 106.611 529.662 105.252 520.73C103.77 511.324 105.196 501.689 109.34 493.115L116.2 475.251L123.053 457.394L137.984 418.488L152.915 379.582C159.498 363.206 169.949 348.667 183.374 337.208C196.799 325.749 212.799 317.712 230.006 313.782L273.868 297.815L317.716 281.876Z" fill="#3E5844" stroke="black" stroke-width="3" stroke-miterlimit="10" stroke-linecap="round"/>
<path d="M374.948 316.4C375.368 307.678 375.786 298.961 376.201 290.248C376.616 281.535 377.032 272.816 377.447 264.089C379.869 263.641 382.347 263.214 384.986 262.829C387.625 262.444 390.278 262.129 393.057 261.807C395.19 261.574 397.29 261.382 399.357 261.233C401.424 261.084 403.419 260.962 405.342 260.869C400.279 270.123 395.22 279.379 390.166 288.638L374.948 316.4Z" fill="black" stroke="black" stroke-width="3" stroke-miterlimit="10" stroke-linecap="round"/>
<path d="M579.18 554.932C574.469 555.114 567.749 551.999 562.212 548.835C558.801 546.896 555.492 544.782 552.3 542.5L490.7 502.11L429.065 461.755L453.6 419.51L478.163 377.258L517.734 399.35L557.312 421.435" stroke="black" stroke-width="3" stroke-miterlimit="10" stroke-linecap="round"/>
<path d="M271.285 332.927L286.524 327.194L301.77 321.461L301.308 340.991L300.846 360.521C300.846 360.6 300.821 360.677 300.776 360.742C300.731 360.807 300.668 360.857 300.594 360.885C300.522 360.914 300.444 360.921 300.368 360.906C300.292 360.891 300.222 360.855 300.167 360.801L285.726 346.864L271.285 332.927Z" fill="#FFF8F8" stroke="black" stroke-width="3" stroke-miterlimit="10" stroke-linecap="round"/>
<path d="M299.6 361.991L305.2 458.017L310.8 554.036H414.792L358.645 457.576L302.498 361.116C302.323 360.812 302.05 360.576 301.724 360.446C301.398 360.317 301.038 360.301 300.702 360.403C300.366 360.504 300.074 360.716 299.874 361.005C299.674 361.293 299.577 361.641 299.6 361.991Z" fill="#FFF8F8" stroke="black" stroke-width="3" stroke-miterlimit="10" stroke-linecap="round"/>
<path d="M362.264 498.337L329.189 480.235L296.1 462.133C296.004 462.081 295.919 462.01 295.85 461.925C295.782 461.84 295.731 461.741 295.701 461.636C295.669 461.532 295.659 461.422 295.671 461.314C295.683 461.206 295.717 461.101 295.771 461.006L369.411 326.459L443.037 191.912L476.84 210.413L510.65 228.9L437.024 363.454L363.398 498.001C363.346 498.097 363.275 498.182 363.19 498.251C363.105 498.319 363.006 498.37 362.901 498.4C362.689 498.463 362.46 498.44 362.264 498.337Z" fill="#F9851C" stroke="black" stroke-width="3" stroke-miterlimit="10" stroke-linecap="round"/>
<path d="M320.754 477.981C320.567 477.982 320.382 477.958 320.201 477.911C320.016 477.869 319.837 477.803 319.669 477.715C319.114 477.426 318.696 476.928 318.507 476.331C318.318 475.734 318.373 475.086 318.661 474.53L380.632 355.264L442.61 235.998C442.899 235.441 443.397 235.022 443.995 234.832C444.593 234.642 445.242 234.698 445.799 234.987C446.355 235.275 446.775 235.773 446.965 236.371C447.154 236.969 447.099 237.618 446.81 238.175L384.825 357.441L322.847 476.7C322.647 477.089 322.341 477.414 321.965 477.638C321.6 477.859 321.181 477.978 320.754 477.981Z" fill="#14AF6C" stroke="black" stroke-width="3" stroke-miterlimit="10" stroke-linecap="round"/>
<path d="M343.938 490.7C343.756 490.699 343.576 490.678 343.399 490.637C343.216 490.588 343.038 490.523 342.867 490.441C342.59 490.296 342.344 490.098 342.143 489.857C341.942 489.617 341.791 489.34 341.698 489.041C341.601 488.747 341.564 488.436 341.588 488.128C341.612 487.819 341.697 487.518 341.838 487.242L402.5 368.431L463.155 249.62C463.443 249.068 463.937 248.652 464.53 248.463C465.123 248.274 465.767 248.327 466.321 248.611C466.875 248.894 467.295 249.385 467.489 249.977C467.682 250.568 467.634 251.213 467.355 251.769L406.7 370.573L346.045 489.384C345.845 489.769 345.543 490.092 345.173 490.319C344.803 490.546 344.379 490.668 343.945 490.672L343.938 490.7Z" fill="#14AF6C" stroke="black" stroke-width="3" stroke-miterlimit="10" stroke-linecap="round"/>
<path d="M229.999 313.803L243.306 364.266L256.613 414.729L278.719 388.087L300.825 361.438L273.21 334.782L245.595 308.126L237.797 310.961L229.999 313.803Z" fill="#3E5844" stroke="black" stroke-width="3" stroke-miterlimit="10" stroke-linecap="round"/>
<path d="M302.568 287.385L301.7 324.415L300.825 361.438L335.181 362.887L369.53 364.336L347.515 321.461L325.5 278.586L314.034 282.989L302.568 287.385Z" fill="#3E5844" stroke="black" stroke-width="3" stroke-miterlimit="10" stroke-linecap="round"/>
<path d="M376.971 312.641L358.218 315.525L339.5 318.409C336.919 319.545 334.588 321.179 332.64 323.218C329.469 326.557 326.823 331.786 328.909 339.318C327.787 339.701 326.727 340.244 325.759 340.928C323.869 342.231 322.399 344.056 321.529 346.18C320.659 348.305 320.426 350.637 320.859 352.891C321.073 354.09 321.457 355.252 322 356.342C320.593 356.692 319.26 357.287 318.059 358.099C317.318 358.601 316.647 359.199 316.064 359.877C314.172 362.251 313.238 365.248 313.446 368.277C313.644 371.881 314.804 375.367 316.806 378.371C316.408 378.751 316.045 379.165 315.721 379.61C315.427 380.01 315.167 380.434 314.944 380.877C312.55 385.672 314.986 391.839 318.129 396.914C320.265 400.306 322.737 403.474 325.507 406.371L335.104 390.082C338.296 384.65 341.493 379.218 344.694 373.786L354.529 397.915L364.329 422.044C365.231 423.899 366.578 425.503 368.249 426.713C370.153 428.162 372.526 429.219 374.941 429.051C376.381 428.923 377.76 428.407 378.931 427.56C379.672 427.037 380.351 426.431 380.954 425.754C383.614 422.828 384.216 418.383 382.655 409.941C381.094 401.499 377.377 389.053 371.406 370.146C371.406 370.146 370.706 367.976 369.194 363.188C367.682 358.4 365.281 350.966 361.9 340.48L369.425 326.564L376.971 312.641Z" fill="#FFC0C0" stroke="black" stroke-width="3" stroke-miterlimit="10" stroke-linecap="round"/>
<path d="M291.116 547.33L302.561 539.588L314.013 531.846L303.282 525.112L292.558 518.371L291.837 532.847L291.116 547.33Z" fill="#D1B7E5" stroke="black" stroke-width="3" stroke-miterlimit="10" stroke-linecap="round"/>
<path d="M295.358 462.231L293.958 490.301L292.558 518.371L303.282 525.112L314.013 531.846L338.296 515.431L362.6 499.016C362.644 498.987 362.68 498.948 362.705 498.901C362.729 498.855 362.741 498.803 362.74 498.75C362.737 498.697 362.72 498.645 362.692 498.6C362.664 498.555 362.625 498.517 362.579 498.491L329.182 480.2L295.82 462C295.773 461.975 295.721 461.963 295.669 461.963C295.616 461.964 295.564 461.978 295.518 462.003C295.472 462.029 295.434 462.066 295.406 462.111C295.378 462.155 295.361 462.206 295.358 462.259V462.231Z" fill="#F7CE21" stroke="black" stroke-width="3" stroke-miterlimit="10" stroke-linecap="round"/>
<path d="M97.111 382.249H239.435C241.272 407.369 244.568 432.362 249.305 457.1C256.9 495.782 269.822 537.054 291.116 547.33H471.177V554.953L307.174 554.862L143.178 554.771C138.663 548.681 134.932 542.983 131.887 537.971C128.842 532.959 126.476 528.57 124.712 525.133C113.813 503.902 107.632 483 103.915 463.351C100.198 443.702 98.952 425.306 97.944 409.087C97.58 403.235 97.37 397.943 97.244 393.407C97.118 388.871 97.111 385.07 97.111 382.249Z" fill="#FFF8F8" stroke="black" stroke-width="3" stroke-miterlimit="10" stroke-linecap="round"/>
<path d="M74.599 443.877H213.759C221.49 462.221 230.786 479.865 241.542 496.615C258.881 523.369 283.143 550.914 310.793 554.015L226.982 554.4L143.178 554.764C143.178 554.764 130.326 546.07 115.325 527.863C100.324 509.656 83.188 481.936 74.599 443.877Z" fill="#D1B7E5" stroke="black" stroke-width="3" stroke-miterlimit="10" stroke-linecap="round"/>
<path d="M67.438 468.601H191.058C197.827 482.034 205.34 495.079 213.563 507.675C226.786 527.821 243.957 549.185 259.763 554.036L201.46 554.4L143.178 554.764C143.178 554.764 132.594 555.765 117.845 545.496C103.096 535.227 84.154 513.695 67.438 468.601Z" fill="#F9851C" stroke="black" stroke-width="3" stroke-miterlimit="10" stroke-linecap="round"/>
<path d="M328.881 339.311L336.763 356.538L344.638 373.765" stroke="black" stroke-width="3" stroke-miterlimit="10" stroke-linecap="round"/>
<path d="M317.394 240.443L298.102 247.044L278.803 253.638C280.897 258.722 283.654 263.507 287 267.869C294.17 277.33 304.232 284.192 315.658 287.413C318.877 288.325 322.171 288.95 325.5 289.282C326.45 284.864 326.947 280.361 326.984 275.842C327.016 271.142 326.566 266.45 325.64 261.842C324.873 258.022 323.78 254.275 322.371 250.642C321.005 247.107 319.34 243.695 317.394 240.443Z" fill="black" stroke="black" stroke-width="3" stroke-miterlimit="10" stroke-linecap="round"/>
<path d="M308.112 284.683C306.712 284.067 305.676 283.507 304.836 283.024C303.996 282.541 303.394 282.156 302.974 281.869C302.666 281.659 302.379 281.463 302.134 281.281L301.49 280.798H302.029L302.659 280.763C302.659 280.763 302.876 280.763 303.198 280.707C303.52 280.651 303.954 280.609 304.381 280.525C306.732 280.082 308.942 279.076 310.819 277.593C312.697 276.11 314.188 274.194 315.163 272.009C316.139 269.824 316.571 267.436 316.422 265.048C316.273 262.659 315.548 260.343 314.309 258.296C313.069 256.249 311.352 254.533 309.305 253.295C307.257 252.057 304.941 251.333 302.552 251.185C300.164 251.038 297.776 251.471 295.591 252.448C293.407 253.425 291.492 254.916 290.01 256.795C287.804 259.581 286.625 263.042 286.671 266.595C285.922 265.755 285.117 264.789 284.305 263.697C283.427 262.522 282.614 261.3 281.869 260.036C281.169 258.874 280.595 257.747 280.091 256.669C279.587 255.591 279.16 254.569 278.803 253.638L245.903 264.894L213.003 276.15C213.11 277.48 213.253 278.815 213.43 280.154C213.607 281.493 213.841 282.837 214.13 284.186C217.518 301.105 226.828 315.161 239.148 324.226C251.468 333.291 266.7 337.344 282.1 334.264C292.911 332.07 302.77 326.559 310.303 318.5C317.94 310.33 323.195 300.226 325.5 289.282C323.41 289.067 321.332 288.74 319.277 288.302C317.436 287.91 315.847 287.483 314.517 287.077C313.817 286.853 312.844 286.552 311.759 286.16C310.674 285.768 309.4 285.278 308.112 284.683Z" fill="#FFC0C0" stroke="black" stroke-width="3" stroke-miterlimit="10" stroke-linecap="round"/>
<path d="M294.994 284.9C295.354 286.699 295.078 288.567 294.215 290.186C293.352 291.805 291.954 293.074 290.259 293.778C288.565 294.482 286.679 294.577 284.923 294.046C283.167 293.515 281.649 292.392 280.628 290.868C279.607 289.344 279.145 287.513 279.323 285.687C279.5 283.861 280.306 282.153 281.601 280.854C282.897 279.554 284.603 278.745 286.428 278.562C288.254 278.38 290.086 278.836 291.613 279.853C292.482 280.429 293.229 281.171 293.809 282.038C294.39 282.904 294.792 283.877 294.994 284.9Z" fill="#EF3F3F" stroke="black" stroke-width="3" stroke-miterlimit="10" stroke-linecap="round"/>
<path d="M257.075 318.626C257.435 320.425 257.159 322.293 256.296 323.912C255.433 325.531 254.035 326.8 252.34 327.504C250.646 328.208 248.76 328.303 247.004 327.772C245.248 327.241 243.73 326.118 242.709 324.594C241.688 323.07 241.226 321.239 241.404 319.413C241.581 317.587 242.387 315.879 243.682 314.58C244.978 313.28 246.684 312.471 248.509 312.288C250.335 312.106 252.167 312.562 253.694 313.579C254.563 314.155 255.309 314.898 255.889 315.764C256.47 316.631 256.873 317.603 257.075 318.626Z" fill="#EF3F3F" stroke="black" stroke-width="3" stroke-miterlimit="10" stroke-linecap="round"/>
<path d="M242.48 301.539C242.647 302.372 242.478 303.237 242.011 303.947C241.538 304.651 240.806 305.139 239.975 305.306C239.144 305.472 238.28 305.303 237.573 304.836C236.867 304.364 236.376 303.632 236.208 302.799C236.124 302.387 236.123 301.963 236.205 301.551C236.287 301.139 236.45 300.747 236.684 300.398C236.917 300.048 237.216 299.747 237.566 299.513C237.915 299.279 238.307 299.116 238.719 299.034C239.131 298.951 239.555 298.951 239.968 299.032C240.38 299.114 240.772 299.276 241.122 299.509C241.471 299.741 241.771 300.04 242.004 300.388C242.237 300.737 242.399 301.128 242.48 301.539Z" fill="#231F20"/>
<path d="M270.06 282.569C270.206 283.296 270.095 284.052 269.746 284.706C269.398 285.361 268.833 285.875 268.148 286.16C267.463 286.445 266.7 286.483 265.99 286.269C265.28 286.054 264.666 285.601 264.253 284.984C263.84 284.368 263.654 283.628 263.726 282.889C263.797 282.151 264.123 281.46 264.647 280.935C265.171 280.41 265.861 280.083 266.599 280.009C267.337 279.936 268.078 280.121 268.695 280.532C269.401 281.004 269.892 281.736 270.06 282.569Z" fill="#231F20"/>
<path d="M232.932 285.285C239.847 277.949 248.415 272.371 257.922 269.017C260.236 268.206 262.594 267.528 264.985 266.987" stroke="black" stroke-width="3" stroke-miterlimit="10" stroke-linecap="round"/>
<path d="M240.443 279.72L248.339 292.663L256.235 305.606L257.971 304.353L259.707 303.093" stroke="black" stroke-width="3" stroke-miterlimit="10" stroke-linecap="round"/>
<path d="M257.558 211.764C243.383 214.606 231.609 223.006 223.692 234.542C215.452 246.772 211.659 261.459 212.947 276.15L265.174 258.3L317.394 240.45C311.31 230.097 302.355 221.73 291.613 216.363C281.084 211.102 269.106 209.484 257.558 211.764Z" fill="#3E5844" stroke="black" stroke-width="3" stroke-miterlimit="10" stroke-linecap="round"/>
<path d="M297.885 271.726L301.679 267.036L305.466 262.339" stroke="black" stroke-width="3" stroke-miterlimit="10" stroke-linecap="round"/>
<path d="M232.771 269.367C234.957 274.834 235.445 280.832 234.171 286.58C232.979 292.056 230.029 296.992 225.771 300.636C224.168 301.983 222.396 303.115 220.5 304.003C214.438 306.816 207.519 307.16 201.208 304.962C197.994 303.838 195.07 302.014 192.649 299.62C190.227 297.226 188.369 294.324 187.208 291.123C186.494 289.155 186.07 287.095 185.948 285.005C185.734 280.432 186.791 275.889 189 271.88C191.254 267.841 194.705 264.551 199.276 263.235C202.018 262.475 204.909 262.425 207.676 263.088C209.496 263.508 211.255 264.157 212.912 265.02C212.814 266.112 212.737 267.253 212.695 268.443C212.653 269.633 212.639 270.872 212.695 272.16C212.695 272.86 212.737 273.56 212.772 274.204C212.807 274.848 212.856 275.52 212.912 276.15L222.838 272.762L232.771 269.367Z" fill="black" stroke="black" stroke-width="3" stroke-miterlimit="10" stroke-linecap="round"/>
<path d="M214.305 256.221L260.484 241.563L306.656 226.905" stroke="black" stroke-width="3" stroke-miterlimit="10" stroke-linecap="round"/>
<path d="M228.277 251.79L230.069 260.736L231.861 269.682" stroke="black" stroke-width="3" stroke-miterlimit="10" stroke-linecap="round"/>
<path d="M246.547 246.127L248.241 254.583L249.935 263.039" stroke="black" stroke-width="3" stroke-miterlimit="10" stroke-linecap="round"/>
<path d="M268.87 239.274L270.536 247.583L272.202 255.892" stroke="black" stroke-width="3" stroke-miterlimit="10" stroke-linecap="round"/>
<path d="M291.564 232.05L293.139 239.904L294.714 247.765" stroke="black" stroke-width="3" stroke-miterlimit="10" stroke-linecap="round"/>
<path d="M263.718 314.3C265.774 314.507 267.85 314.192 269.752 313.383C272.832 312.032 276.052 308.903 276.521 301.784" stroke="black" stroke-width="3" stroke-miterlimit="10" stroke-linecap="round"/>
<path d="M514.759 212.835C514.749 221.904 511.594 230.688 505.834 237.692C500.073 244.696 492.062 249.485 483.166 251.245C474.27 253.005 465.039 251.626 457.045 247.343C449.052 243.06 442.791 236.138 439.328 227.756C435.866 219.374 435.417 210.052 438.058 201.376C440.698 192.7 446.265 185.209 453.81 180.177C461.354 175.146 470.41 172.886 479.434 173.782C488.459 174.679 496.893 178.676 503.3 185.094C506.943 188.735 509.831 193.061 511.797 197.821C513.764 202.582 514.77 207.684 514.759 212.835Z" fill="#F7CE21" stroke="black" stroke-width="3" stroke-miterlimit="10" stroke-linecap="round"/>
<path d="M496.3 212.835C496.294 217.636 494.623 222.286 491.574 225.994C488.524 229.701 484.283 232.237 479.573 233.168C474.864 234.1 469.977 233.37 465.745 231.104C461.513 228.837 458.198 225.173 456.364 220.736C454.53 216.299 454.291 211.364 455.687 206.771C457.084 202.178 460.029 198.211 464.022 195.545C468.015 192.88 472.809 191.681 477.586 192.154C482.364 192.626 486.83 194.74 490.224 198.135C492.157 200.063 493.689 202.354 494.732 204.877C495.775 207.4 496.308 210.105 496.3 212.835Z" fill="#D1B7E5" stroke="black" stroke-width="3" stroke-miterlimit="10" stroke-linecap="round"/>
<path d="M322.105 356.3L329.749 370.615L337.4 384.923" fill="#104FC1"/>
<path d="M322.105 356.3L329.749 370.615L337.4 384.923" stroke="black" stroke-width="3" stroke-miterlimit="10" stroke-linecap="round"/>
<path d="M316.659 378.455L323.484 388.255L330.302 398.055" fill="#FFC0C0"/>
<path d="M316.659 378.455L323.484 388.255L330.302 398.055" stroke="black" stroke-width="3" stroke-miterlimit="10" stroke-linecap="round"/>
<path d="M478.17 377.258C473.27 372.792 464.457 366.352 455.616 359.912C446.775 353.472 437.92 347.032 433.055 342.566C430.962 340.42 428.339 338.865 425.451 338.057C422.564 337.25 419.515 337.219 416.612 337.967L392.357 344.204L368.109 350.448C367.094 350.707 366.072 350.945 365.057 351.183C364.042 351.421 363.013 351.645 361.998 351.883C359.252 352.467 356.66 353.621 354.389 355.271C352.569 356.54 351.289 358.442 350.798 360.605C350.668 361.319 350.652 362.049 350.749 362.768C350.797 363.146 350.881 363.519 351.001 363.881C351.638 365.799 353.22 367.381 355.474 368.508C358.133 369.744 361.026 370.394 363.958 370.412L365.519 370.454L367.08 370.496H367.78L369.257 370.552C377.552 370.916 383.957 371.196 388.969 372.078C393.981 372.96 397.558 374.437 400.169 377.202C400.981 378.006 401.572 379.007 401.884 380.107C402.617 382.165 403.555 384.144 404.684 386.015C407.544 391.011 411.046 395.612 415.1 399.7L403.2 423.409L391.3 447.111C392.882 448.084 394.59 449.05 396.417 449.995C398.244 450.94 400.204 451.857 402.283 452.725C407.308 454.816 412.534 456.388 417.879 457.415C422.14 458.228 426.458 458.711 430.794 458.857L454.51 418.054L478.17 377.258Z" fill="#FFC0C0" stroke="black" stroke-width="3" stroke-miterlimit="10" stroke-linecap="round"/>
<path d="M401.653 380.471C404.249 386.014 407.563 391.192 411.509 395.871C417.994 403.692 426.453 409.635 436.009 413.084C439.445 414.283 442.993 415.13 446.6 415.611C449.571 416.01 452.57 416.176 455.567 416.108" stroke="black" stroke-width="3" stroke-miterlimit="10" stroke-linecap="round"/>
<path d="M480.816 495.656L490.301 502.005C495.936 505.785 503.37 510.762 510.538 515.55C541.821 536.459 549.164 541.233 549.78 541.506C550.396 541.779 544.271 537.572 548.618 540.526C549.815 541.338 551.859 542.724 554.645 544.453C557.431 546.182 560.945 548.247 565.068 550.403C567.007 551.411 568.785 552.286 570.339 553.021C571.893 553.756 573.23 554.365 574.273 554.82L542.5 554.309L510.727 553.798C505.743 544.11 500.757 534.42 495.768 524.727L480.816 495.656Z" fill="black" stroke="black" stroke-width="3" stroke-miterlimit="10" stroke-linecap="round"/>
<path d="M279.482 482.076C279.483 483.025 279.155 483.945 278.554 484.68C277.953 485.414 277.116 485.917 276.185 486.103C275.254 486.29 274.288 486.147 273.45 485.701C272.613 485.254 271.956 484.531 271.592 483.655C271.228 482.778 271.179 481.803 271.453 480.894C271.728 479.986 272.309 479.201 273.098 478.673C273.886 478.145 274.834 477.906 275.778 477.998C276.723 478.091 277.606 478.507 278.278 479.178C278.66 479.558 278.963 480.009 279.17 480.507C279.376 481.004 279.482 481.537 279.482 482.076Z" fill="black" stroke="black" stroke-width="3" stroke-miterlimit="10" stroke-linecap="round"/>
</svg>
